<?xml version="1.0" encoding="UTF-8" standalone="no"?>
<!DOCTYPE svg PUBLIC "-//W3C//DTD SVG 1.1//EN"
 "http://www.w3.org/Graphics/SVG/1.1/DTD/svg11.dtd">
<!-- Generated by graphviz version 2.43.0 (0)
 -->
<!-- Title: Graph Legend Pages: 1 -->
<svg width="620pt" height="169pt"
 viewBox="0.00 0.00 619.50 169.00" xmlns="http://www.w3.org/2000/svg" xmlns:xlink="http://www.w3.org/1999/xlink">
<g id="graph0" class="graph" transform="scale(1 1) rotate(0) translate(4 165)">
<title>Graph Legend</title>
<!-- Node9 -->
<g id="node1" class="node">
<title>Node9</title>
<polygon fill="#bfbfbf" stroke="black" points="356.5,-21 285.5,-21 285.5,0 356.5,0 356.5,-21"/>
<text text-anchor="middle" x="321" y="-7.4" font-family="Helvetica,sans-Serif" font-size="12.00">Inherited</text>
</g>
<!-- Node10 -->
<g id="node2" class="node">
<title>Node10</title>
<polygon fill="none" stroke="black" points="80,-91 0,-91 0,-70 80,-70 80,-91"/>
<text text-anchor="middle" x="40" y="-77.4" font-family="Helvetica,sans-Serif" font-size="12.00">PublicBase</text>
</g>
<!-- Node10&#45;&gt;Node9 -->
<g id="edge1" class="edge">
<title>Node10&#45;&gt;Node9</title>
<path fill="none" stroke="midnightblue" d="M89.09,-67.62C145.21,-54.04 235.72,-32.14 285.45,-20.1"/>
<polygon fill="midnightblue" stroke="midnightblue" points="88.26,-64.22 79.37,-69.97 89.91,-71.02 88.26,-64.22"/>
</g>
<!-- Node11 -->
<g id="node3" class="node">
<title>Node11</title>
<polygon fill="none" stroke="red" points="78,-161 2,-161 2,-140 78,-140 78,-161"/>
<text text-anchor="middle" x="40" y="-147.4" font-family="Helvetica,sans-Serif" font-size="12.00">Truncated</text>
</g>
<!-- Node11&#45;&gt;Node10 -->
<g id="edge2" class="edge">
<title>Node11&#45;&gt;Node10</title>
<path fill="none" stroke="midnightblue" d="M40,-129.7C40,-117.05 40,-101.22 40,-91.22"/>
<polygon fill="midnightblue" stroke="midnightblue" points="36.5,-129.76 40,-139.76 43.5,-129.76 36.5,-129.76"/>
</g>
<!-- Node13 -->
<g id="node4" class="node">
<title>Node13</title>
<polygon fill="none" stroke="black" points="201.5,-91 98.5,-91 98.5,-70 201.5,-70 201.5,-91"/>
<text text-anchor="middle" x="150" y="-77.4" font-family="Helvetica,sans-Serif" font-size="12.00">ProtectedBase</text>
</g>
<!-- Node13&#45;&gt;Node9 -->
<g id="edge3" class="edge">
<title>Node13&#45;&gt;Node9</title>
<path fill="none" stroke="darkgreen" d="M183.49,-66.18C216.9,-52.9 267.38,-32.82 296.99,-21.05"/>
<polygon fill="darkgreen" stroke="darkgreen" points="182.14,-62.95 174.14,-69.9 184.72,-69.46 182.14,-62.95"/>
</g>
<!-- Node14 -->
<g id="node5" class="node">
<title>Node14</title>
<polygon fill="none" stroke="black" points="306.5,-91 219.5,-91 219.5,-70 306.5,-70 306.5,-91"/>
<text text-anchor="middle" x="263" y="-77.4" font-family="Helvetica,sans-Serif" font-size="12.00">PrivateBase</text>
</g>
<!-- Node14&#45;&gt;Node9 -->
<g id="edge4" class="edge">
<title>Node14&#45;&gt;Node9</title>
<path fill="none" stroke="#8b1a1a" d="M277.96,-61.96C289.02,-48.99 303.67,-31.82 312.71,-21.22"/>
<polygon fill="#8b1a1a" stroke="#8b1a1a" points="275.14,-59.88 271.31,-69.76 280.46,-64.42 275.14,-59.88"/>
</g>
<!-- Node15 -->
<g id="node6" class="node">
<title>Node15</title>
<polygon fill="none" stroke="#bfbfbf" points="433.5,-91 324.5,-91 324.5,-70 433.5,-70 433.5,-91"/>
<text text-anchor="middle" x="379" y="-77.4" font-family="Helvetica,sans-Serif" font-size="12.00">Undocumented</text>
</g>
<!-- Node15&#45;&gt;Node9 -->
<g id="edge5" class="edge">
<title>Node15&#45;&gt;Node9</title>
<path fill="none" stroke="midnightblue" d="M364.04,-61.96C352.98,-48.99 338.33,-31.82 329.29,-21.22"/>
<polygon fill="midnightblue" stroke="midnightblue" points="361.54,-64.42 370.69,-69.76 366.86,-59.88 361.54,-64.42"/>
</g>
<!-- Node16 -->
<g id="node7" class="node">
<title>Node16</title>
<polygon fill="none" stroke="black" points="546,-91 452,-91 452,-70 546,-70 546,-91"/>
<text text-anchor="middle" x="499" y="-77.4" font-family="Helvetica,sans-Serif" font-size="12.00">Templ&lt; int &gt;</text>
</g>
<!-- Node16&#45;&gt;Node9 -->
<g id="edge6" class="edge">
<title>Node16&#45;&gt;Node9</title>
<path fill="none" stroke="midnightblue" d="M464.14,-66.18C429.36,-52.9 376.81,-32.82 346,-21.05"/>
<polygon fill="midnightblue" stroke="midnightblue" points="463.28,-69.6 473.87,-69.9 465.78,-63.06 463.28,-69.6"/>
</g>
<!-- Node17 -->
<g id="node8" class="node">
<title>Node17</title>
<polygon fill="none" stroke="black" points="542,-161 456,-161 456,-140 542,-140 542,-161"/>
<text text-anchor="middle" x="499" y="-147.4" font-family="Helvetica,sans-Serif" font-size="12.00">Templ&lt; T &gt;</text>
</g>
<!-- Node17&#45;&gt;Node16 -->
<g id="edge7" class="edge">
<title>Node17&#45;&gt;Node16</title>
<path fill="none" stroke="orange" stroke-dasharray="5,2" d="M499,-129.7C499,-117.05 499,-101.22 499,-91.22"/>
<polygon fill="orange" stroke="orange" points="495.5,-129.76 499,-139.76 502.5,-129.76 495.5,-129.76"/>
<text text-anchor="middle" x="520.5" y="-112.4" font-family="Helvetica,sans-Serif" font-size="12.00">&lt; int &gt;</text>
</g>
<!-- Node18 -->
<g id="node9" class="node">
<title>Node18</title>
<polygon fill="none" stroke="black" points="611.5,-91 564.5,-91 564.5,-70 611.5,-70 611.5,-91"/>
<text text-anchor="middle" x="588" y="-77.4" font-family="Helvetica,sans-Serif" font-size="12.00">Used</text>
</g>
<!-- Node18&#45;&gt;Node9 -->
<g id="edge8" class="edge">
<title>Node18&#45;&gt;Node9</title>
<path fill="none" stroke="#9a32cd" stroke-dasharray="5,2" d="M554.48,-69.93C478.35,-49.56 400.89,-30.63 356.78,-20.03"/>
<polygon fill="#9a32cd" stroke="#9a32cd" points="553.67,-73.34 564.23,-72.55 555.49,-66.58 553.67,-73.34"/>
<text text-anchor="middle" x="523" y="-42.4" font-family="Helvetica,sans-Serif" font-size="12.00">m_usedClass</text>
</g>
</g>
</svg>
